TITLE ""
FILE "LR_black_phrase_E_C01.mp3" MP3
  TRACK 01 AUDIO
    TITLE "LR_black_phrase_E_C01_001"
    INDEX 01 00:00:00
  TRACK 02 AUDIO
    TITLE "LR_black_phrase_E_C01_002"
    INDEX 01 00:00:16
  TRACK 03 AUDIO
    TITLE "LR_black_phrase_E_C01_003"
    INDEX 01 00:01:45
  TRACK 04 AUDIO
    TITLE "LR_black_phrase_E_C01_004"
    INDEX 01 00:01:74
  TRACK 05 AUDIO
    TITLE "LR_black_phrase_E_C01_005"
    INDEX 01 00:04:04
  TRACK 06 AUDIO
    TITLE "LR_black_phrase_E_C01_006"
    INDEX 01 00:04:53
  TRACK 07 AUDIO
    TITLE "LR_black_phrase_E_C01_007"
    INDEX 01 00:06:56
  TRACK 08 AUDIO
    TITLE "LR_black_phrase_E_C01_008"
    INDEX 01 00:07:55
  TRACK 09 AUDIO
    TITLE "LR_black_phrase_E_C01_009"
    INDEX 01 00:09:09
  TRACK 10 AUDIO
    TITLE "LR_black_phrase_E_C01_010"
    INDEX 01 00:09:41
  TRACK 11 AUDIO
    TITLE "LR_black_phrase_E_C01_011"
    INDEX 01 00:11:39
  TRACK 12 AUDIO
    TITLE "LR_black_phrase_E_C01_012"
    INDEX 01 00:12:17
  TRACK 13 AUDIO
    TITLE "LR_black_phrase_E_C01_013"
    INDEX 01 00:14:16
  TRACK 14 AUDIO
    TITLE "LR_black_phrase_E_C01_014"
    INDEX 01 00:15:20
  TRACK 15 AUDIO
    TITLE "LR_black_phrase_E_C01_015"
    INDEX 01 00:16:39
  TRACK 16 AUDIO
    TITLE "LR_black_phrase_E_C01_016"
    INDEX 01 00:16:72
  TRACK 17 AUDIO
    TITLE "LR_black_phrase_E_C01_017"
    INDEX 01 00:19:59
  TRACK 18 AUDIO
    TITLE "LR_black_phrase_E_C01_018"
    INDEX 01 00:20:38
  TRACK 19 AUDIO
    TITLE "LR_black_phrase_E_C01_019"
    INDEX 01 00:23:23
  TRACK 20 AUDIO
    TITLE "LR_black_phrase_E_C01_020"
    INDEX 01 00:24:28
  TRACK 21 AUDIO
    TITLE "LR_black_phrase_E_C01_021"
    INDEX 01 00:25:38
  TRACK 22 AUDIO
    TITLE "LR_black_phrase_E_C01_022"
    INDEX 01 00:25:67
  TRACK 23 AUDIO
    TITLE "LR_black_phrase_E_C01_023"
    INDEX 01 00:28:05
  TRACK 24 AUDIO
    TITLE "LR_black_phrase_E_C01_024"
    INDEX 01 00:28:60
  TRACK 25 AUDIO
    TITLE "LR_black_phrase_E_C01_025"
    INDEX 01 00:30:72
  TRACK 26 AUDIO
    TITLE "LR_black_phrase_E_C01_026"
    INDEX 01 00:32:04
  TRACK 27 AUDIO
    TITLE "LR_black_phrase_E_C01_027"
    INDEX 01 00:33:25
  TRACK 28 AUDIO
    TITLE "LR_black_phrase_E_C01_028"
    INDEX 01 00:33:55
  TRACK 29 AUDIO
    TITLE "LR_black_phrase_E_C01_029"
    INDEX 01 00:35:65
  TRACK 30 AUDIO
    TITLE "LR_black_phrase_E_C01_030"
    INDEX 01 00:36:45
  TRACK 31 AUDIO
    TITLE "LR_black_phrase_E_C01_031"
    INDEX 01 00:38:56
  TRACK 32 AUDIO
    TITLE "LR_black_phrase_E_C01_032"
    INDEX 01 00:39:61
  TRACK 33 AUDIO
    TITLE "LR_black_phrase_E_C01_033"
    INDEX 01 00:41:21
  TRACK 34 AUDIO
    TITLE "LR_black_phrase_E_C01_034"
    INDEX 01 00:41:50
  TRACK 35 AUDIO
    TITLE "LR_black_phrase_E_C01_035"
    INDEX 01 00:44:55
  TRACK 36 AUDIO
    TITLE "LR_black_phrase_E_C01_036"
    INDEX 01 00:45:34
  TRACK 37 AUDIO
    TITLE "LR_black_phrase_E_C01_037"
    INDEX 01 00:48:39
  TRACK 38 AUDIO
    TITLE "LR_black_phrase_E_C01_038"
    INDEX 01 00:49:48
  TRACK 39 AUDIO
    TITLE "LR_black_phrase_E_C01_039"
    INDEX 01 00:50:69
  TRACK 40 AUDIO
    TITLE "LR_black_phrase_E_C01_040"
    INDEX 01 00:51:23
  TRACK 41 AUDIO
    TITLE "LR_black_phrase_E_C01_041"
    INDEX 01 00:54:26
  TRACK 42 AUDIO
    TITLE "LR_black_phrase_E_C01_042"
    INDEX 01 00:55:05
  TRACK 43 AUDIO
    TITLE "LR_black_phrase_E_C01_043"
    INDEX 01 00:58:08
  TRACK 44 AUDIO
    TITLE "LR_black_phrase_E_C01_044"
    INDEX 01 00:59:11
  TRACK 45 AUDIO
    TITLE "LR_black_phrase_E_C01_045"
    INDEX 01 01:00:26
  TRACK 46 AUDIO
    TITLE "LR_black_phrase_E_C01_046"
    INDEX 01 01:00:58
  TRACK 47 AUDIO
    TITLE "LR_black_phrase_E_C01_047"
    INDEX 01 01:03:11
  TRACK 48 AUDIO
    TITLE "LR_black_phrase_E_C01_048"
    INDEX 01 01:03:58
  TRACK 49 AUDIO
    TITLE "LR_black_phrase_E_C01_049"
    INDEX 01 01:06:11
  TRACK 50 AUDIO
    TITLE "LR_black_phrase_E_C01_050"
    INDEX 01 01:07:07
  TRACK 51 AUDIO
    TITLE "LR_black_phrase_E_C01_051"
    INDEX 01 01:08:16
  TRACK 52 AUDIO
    TITLE "LR_black_phrase_E_C01_052"
    INDEX 01 01:08:45
  TRACK 53 AUDIO
    TITLE "LR_black_phrase_E_C01_053"
    INDEX 01 01:11:22
  TRACK 54 AUDIO
    TITLE "LR_black_phrase_E_C01_054"
    INDEX 01 01:12:00
  TRACK 55 AUDIO
    TITLE "LR_black_phrase_E_C01_055"
    INDEX 01 01:14:52
  TRACK 56 AUDIO
    TITLE "LR_black_phrase_E_C01_056"
    INDEX 01 01:15:57
  TRACK 57 AUDIO
    TITLE "LR_black_phrase_E_C01_057"
    INDEX 01 01:17:01
  TRACK 58 AUDIO
    TITLE "LR_black_phrase_E_C01_058"
    INDEX 01 01:17:31
  TRACK 59 AUDIO
    TITLE "LR_black_phrase_E_C01_059"
    INDEX 01 01:19:67
  TRACK 60 AUDIO
    TITLE "LR_black_phrase_E_C01_060"
    INDEX 01 01:20:45
  TRACK 61 AUDIO
    TITLE "LR_black_phrase_E_C01_061"
    INDEX 01 01:23:06
  TRACK 62 AUDIO
    TITLE "LR_black_phrase_E_C01_062"
    INDEX 01 01:24:11
  TRACK 63 AUDIO
    TITLE "LR_black_phrase_E_C01_063"
    INDEX 01 01:25:22
  TRACK 64 AUDIO
    TITLE "LR_black_phrase_E_C01_064"
    INDEX 01 01:25:52
  TRACK 65 AUDIO
    TITLE "LR_black_phrase_E_C01_065"
    INDEX 01 01:27:37
  TRACK 66 AUDIO
    TITLE "LR_black_phrase_E_C01_066"
    INDEX 01 01:28:17
  TRACK 67 AUDIO
    TITLE "LR_black_phrase_E_C01_067"
    INDEX 01 01:30:02
  TRACK 68 AUDIO
    TITLE "LR_black_phrase_E_C01_068"
    INDEX 01 01:31:07
  TRACK 69 AUDIO
    TITLE "LR_black_phrase_E_C01_069"
    INDEX 01 01:32:40
  TRACK 70 AUDIO
    TITLE "LR_black_phrase_E_C01_070"
    INDEX 01 01:32:71
  TRACK 71 AUDIO
    TITLE "LR_black_phrase_E_C01_071"
    INDEX 01 01:35:40
  TRACK 72 AUDIO
    TITLE "LR_black_phrase_E_C01_072"
    INDEX 01 01:36:22
  TRACK 73 AUDIO
    TITLE "LR_black_phrase_E_C01_073"
    INDEX 01 01:38:64
  TRACK 74 AUDIO
    TITLE "LR_black_phrase_E_C01_074"
    INDEX 01 01:39:69
  TRACK 75 AUDIO
    TITLE "LR_black_phrase_E_C01_075"
    INDEX 01 01:41:10
  TRACK 76 AUDIO
    TITLE "LR_black_phrase_E_C01_076"
    INDEX 01 01:41:37
  TRACK 77 AUDIO
    TITLE "LR_black_phrase_E_C01_077"
    INDEX 01 01:43:24
  TRACK 78 AUDIO
    TITLE "LR_black_phrase_E_C01_078"
    INDEX 01 01:44:04
  TRACK 79 AUDIO
    TITLE "LR_black_phrase_E_C01_079"
    INDEX 01 01:45:66
  TRACK 80 AUDIO
    TITLE "LR_black_phrase_E_C01_080"
    INDEX 01 01:46:73
  TRACK 81 AUDIO
    TITLE "LR_black_phrase_E_C01_081"
    INDEX 01 01:48:19
  TRACK 82 AUDIO
    TITLE "LR_black_phrase_E_C01_082"
    INDEX 01 01:48:47
  TRACK 83 AUDIO
    TITLE "LR_black_phrase_E_C01_083"
    INDEX 01 01:50:32
  TRACK 84 AUDIO
    TITLE "LR_black_phrase_E_C01_084"
    INDEX 01 01:51:12
  TRACK 85 AUDIO
    TITLE "LR_black_phrase_E_C01_085"
    INDEX 01 01:52:72
  TRACK 86 AUDIO
    TITLE "LR_black_phrase_E_C01_086"
    INDEX 01 01:54:00
  TRACK 87 AUDIO
    TITLE "LR_black_phrase_E_C01_087"
    INDEX 01 01:55:21
  TRACK 88 AUDIO
    TITLE "LR_black_phrase_E_C01_088"
    INDEX 01 01:55:47
  TRACK 89 AUDIO
    TITLE "LR_black_phrase_E_C01_089"
    INDEX 01 01:58:18
  TRACK 90 AUDIO
    TITLE "LR_black_phrase_E_C01_090"
    INDEX 01 01:59:04
  TRACK 91 AUDIO
    TITLE "LR_black_phrase_E_C01_091"
    INDEX 01 02:01:49
  TRACK 92 AUDIO
    TITLE "LR_black_phrase_E_C01_092"
    INDEX 01 02:02:59
  TRACK 93 AUDIO
    TITLE "LR_black_phrase_E_C01_093"
    INDEX 01 02:04:01
  TRACK 94 AUDIO
    TITLE "LR_black_phrase_E_C01_094"
    INDEX 01 02:04:30
  TRACK 95 AUDIO
    TITLE "LR_black_phrase_E_C01_095"
    INDEX 01 02:07:19
  TRACK 96 AUDIO
    TITLE "LR_black_phrase_E_C01_096"
    INDEX 01 02:08:01
  TRACK 97 AUDIO
    TITLE "LR_black_phrase_E_C01_097"
    INDEX 01 02:10:64
  TRACK 98 AUDIO
    TITLE "LR_black_phrase_E_C01_098"
    INDEX 01 02:11:69
  TRACK 99 AUDIO
    TITLE "LR_black_phrase_E_C01_099"
    INDEX 01 02:13:10
  TRACK 100 AUDIO
    TITLE "LR_black_phrase_E_C01_100"
    INDEX 01 02:13:39
  TRACK 101 AUDIO
    TITLE "LR_black_phrase_E_C01_101"
    INDEX 01 02:16:24
  TRACK 102 AUDIO
    TITLE "LR_black_phrase_E_C01_102"
    INDEX 01 02:17:05
  TRACK 103 AUDIO
    TITLE "LR_black_phrase_E_C01_103"
    INDEX 01 02:19:65
  TRACK 104 AUDIO
    TITLE "LR_black_phrase_E_C01_104"
    INDEX 01 02:20:70
  TRACK 105 AUDIO
    TITLE "LR_black_phrase_E_C01_105"
    INDEX 01 02:22:22
  TRACK 106 AUDIO
    TITLE "LR_black_phrase_E_C01_106"
    INDEX 01 02:22:54
  TRACK 107 AUDIO
    TITLE "LR_black_phrase_E_C01_107"
    INDEX 01 02:24:54
  TRACK 108 AUDIO
    TITLE "LR_black_phrase_E_C01_108"
    INDEX 01 02:25:32
  TRACK 109 AUDIO
    TITLE "LR_black_phrase_E_C01_109"
    INDEX 01 02:27:33
  TRACK 110 AUDIO
    TITLE "LR_black_phrase_E_C01_110"
    INDEX 01 02:28:36
  TRACK 111 AUDIO
    TITLE "LR_black_phrase_E_C01_111"
    INDEX 01 02:29:50
  TRACK 112 AUDIO
    TITLE "LR_black_phrase_E_C01_112"
    INDEX 01 02:30:12
  TRACK 113 AUDIO
    TITLE "LR_black_phrase_E_C01_113"
    INDEX 01 02:33:14
  TRACK 114 AUDIO
    TITLE "LR_black_phrase_E_C01_114"
    INDEX 01 02:33:67
  TRACK 115 AUDIO
    TITLE "LR_black_phrase_E_C01_115"
    INDEX 01 02:36:69
  TRACK 116 AUDIO
    TITLE "LR_black_phrase_E_C01_116"
    INDEX 01 02:37:73
  TRACK 117 AUDIO
    TITLE "LR_black_phrase_E_C01_117"
    INDEX 01 02:39:38
  TRACK 118 AUDIO
    TITLE "LR_black_phrase_E_C01_118"
    INDEX 01 02:39:58
  TRACK 119 AUDIO
    TITLE "LR_black_phrase_E_C01_119"
    INDEX 01 02:42:13
  TRACK 120 AUDIO
    TITLE "LR_black_phrase_E_C01_120"
    INDEX 01 02:42:62
  TRACK 121 AUDIO
    TITLE "LR_black_phrase_E_C01_121"
    INDEX 01 02:45:17
